<svg xmlns="http://www.w3.org/2000/svg" viewBox="0 0 120 120" fill="none">
  {/* Rounded App Icon Background */}
  <circle cx="60" cy="60" r="56" fill="#0A0A0A" stroke="#C9A84C" stroke-width="1" stroke-opacity="0.2" />

  {/* Brand Logo Group */}
  <g transform="translate(0, 34)">
    {/* i (first) */}
    <rect x="12" y="14" width="4.5" height="18" rx="1" fill="#C9A84C" />
    <circle cx="14.25" cy="7" r="2.5" fill="#C9A84C" />

    {/* v */}
    <path d="M22 14.5 L28.5 31 L35 14.5" stroke="#C9A84C" stroke-width="4.5" stroke-linecap="round" stroke-linejoin="round" />

    {/* i (second) */}
    <rect x="41" y="14" width="4.5" height="18" rx="1" fill="#C9A84C" />
    <circle cx="43.25" cy="7" r="2.5" fill="#C9A84C" />

    {/* t */}
    <polygon points="53.5,32 58,32 58,6 53.5,11.5" fill="#C9A84C" />
    <path d="M49.5 17.5 H61.5" stroke="#C9A84C" stroke-width="4.5" stroke-linecap="round" />
    {/* Downward triangle (brand purple) */}
    <polygon points="49.5,38 62.5,38 56,46.5" fill="#5B244D" />

    {/* n */}
    <path d="M70.5 14 V32" stroke="#C9A84C" stroke-width="4.5" stroke-linecap="round" />
    <path d="M70.5 20 C70.5 14, 80 14, 80 19 V32" stroke="#C9A84C" stroke-width="4.5" stroke-linecap="round" fill="none" />

    {/* a */}
    <circle cx="101" cy="23.75" r="6.75" stroke="#C9A84C" stroke-width="4.5" fill="none" />
    <path d="M107.75 14 V32" stroke="#C9A84C" stroke-width="4.5" stroke-linecap="round" />
    <circle cx="107.75" cy="7" r="2.5" fill="#5B244D" />
  </g>
</svg>